<?xml version="1.0" standalone="no"?>
<!DOCTYPE svg PUBLIC "-//W3C//DTD SVG 20010904//EN"
 "http://www.w3.org/TR/2001/REC-SVG-20010904/DTD/svg10.dtd">
<svg version="1.0" xmlns="http://www.w3.org/2000/svg"
 width="606.000000pt" height="606.000000pt" viewBox="0 0 606.000000 606.000000"
 preserveAspectRatio="xMidYMid meet">
<metadata>
Created by potrace 1.11, written by Peter Selinger 2001-2013
</metadata>
<g transform="translate(0.000000,606.000000) scale(0.100000,-0.100000)"
fill="#000000" stroke="none">
<path d="M2740 5695 c-177 -22 -191 -25 -305 -50 -376 -83 -708 -234 -1010
-460 -60 -45 -138 -108 -172 -139 l-63 -57 -218 1 -219 1 49 -188 c26 -103 48
-193 48 -201 0 -8 -8 -26 -19 -40 -87 -124 -226 -402 -284 -567 -64 -181 -117
-395 -132 -535 -4 -30 -8 -61 -11 -69 -16 -48 -23 -401 -11 -561 8 -97 10
-114 28 -235 57 -361 208 -750 406 -1044 110 -163 172 -239 312 -381 l113
-115 1 -142 0 -143 196 0 c183 0 198 -2 231 -21 198 -122 585 -266 815 -305
115 -19 144 -24 175 -28 202 -29 574 -27 769 5 36 6 82 12 101 15 19 2 42 6
50 9 8 2 31 7 50 10 35 6 114 27 245 67 213 63 498 201 672 324 64 46 73 50
73 35 0 -5 15 -32 33 -60 l32 -51 233 0 c184 0 232 3 226 13 -4 6 -33 51 -63
98 -31 47 -60 92 -66 101 -5 8 -19 28 -29 44 -11 16 -30 45 -43 65 -12 19 -23
41 -23 48 0 7 27 41 59 75 359 369 615 915 686 1463 27 204 27 563 0 743 -31
208 -52 300 -106 475 -23 72 -44 135 -49 140 -4 6 -13 28 -20 50 -35 110 -191
397 -284 523 -25 34 -41 62 -36 62 6 0 10 60 10 160 l0 160 -150 0 -151 0 -88
76 c-356 306 -763 502 -1227 593 -54 11 -126 22 -159 26 -33 4 -71 9 -85 12
-59 12 -490 10 -590 -2z"/>
</g>
</svg>
